<?xml version="1.0" standalone="no"?>
<!DOCTYPE svg PUBLIC "-//W3C//DTD SVG 20010904//EN"
 "http://www.w3.org/TR/2001/REC-SVG-20010904/DTD/svg10.dtd">
<svg version="1.0" xmlns="http://www.w3.org/2000/svg"
 width="3840.000000pt" height="2160.000000pt" viewBox="0 0 3840 2160"
 preserveAspectRatio="xMidYMid meet">
<metadata>
Created by potrace 1.16, written by Peter Selinger 2001-2019
</metadata>
<g transform="translate(0.000000,2160.000000) scale(0.100000,-0.100000)"
fill="#000000" stroke="none">
<path d="M17185 13461 c-413 -85 -908 -348 -1375 -731 -229 -188 -322 -273
-595 -540 -292 -286 -384 -367 -630 -553 -669 -504 -1359 -800 -2060 -882
-194 -23 -531 -21 -725 5 -607 78 -1400 439 -1822 827 -166 152 -300 233 -390
233 -39 0 -54 -6 -82 -31 -45 -39 -56 -79 -56 -199 0 -192 50 -315 255 -630
232 -357 539 -713 900 -1043 707 -646 1573 -1082 2515 -1266 116 -23 338 -54
498 -71 275 -29 808 -29 1111 0 707 68 1440 249 2176 538 414 162 852 445
1204 778 309 293 586 683 737 1037 33 79 45 97 50 82 105 -291 352 -677 625
-976 150 -164 426 -397 646 -546 326 -221 593 -348 1082 -514 774 -263 1442
-393 2139 -418 720 -26 1393 72 2015 294 206 73 332 127 572 245 296 146 555
307 834 518 544 411 1055 978 1374 1522 104 179 147 307 147 442 0 105 -16
162 -55 204 -29 30 -38 34 -85 34 -96 0 -224 -78 -419 -254 -420 -380 -1236
-742 -1828 -811 -159 -19 -500 -21 -648 -5 -351 39 -659 115 -975 242 -412
165 -758 363 -1145 655 -223 168 -360 288 -580 508 -473 474 -853 777 -1277
1019 -232 133 -509 241 -732 286 -100 20 -130 22 -375 17 -239 -4 -278 -7
-383 -30 -399 -88 -686 -255 -884 -513 -32 -41 -58 -73 -60 -72 -1 2 -23 31
-48 65 -105 143 -274 282 -453 371 -108 55 -286 115 -436 149 -114 25 -140 27
-397 29 -235 3 -288 0 -365 -15z"/>
</g>
</svg>
